<?xml version="1.0" encoding="UTF-8" standalone="no"?>
<!-- Created with Inkscape (http://www.inkscape.org/) -->

<svg
   xmlns:dc="http://purl.org/dc/elements/1.1/"
   xmlns:cc="http://creativecommons.org/ns#"
   xmlns:rdf="http://www.w3.org/1999/02/22-rdf-syntax-ns#"
   xmlns:svg="http://www.w3.org/2000/svg"
   xmlns="http://www.w3.org/2000/svg"
   xmlns:sodipodi="http://sodipodi.sourceforge.net/DTD/sodipodi-0.dtd"
   xmlns:inkscape="http://www.inkscape.org/namespaces/inkscape"
   id="svg3004"
   version="1.1"
   inkscape:version="0.48.4 r9939"
   width="743.75"
   height="1052.5"
   xml:space="preserve"
   sodipodi:docname="online.pdf"><metadata
     id="metadata3010"><rdf:RDF><cc:Work
         rdf:about=""><dc:format>image/svg+xml</dc:format><dc:type
           rdf:resource="http://purl.org/dc/dcmitype/StillImage" /><dc:title></dc:title></cc:Work></rdf:RDF></metadata><defs
     id="defs3008"><clipPath
       clipPathUnits="userSpaceOnUse"
       id="clipPath3018"><path
         d="m 0,0.1 595.2,0 0,841.8 L 0,841.9 0,0.1 z"
         clip-rule="evenodd"
         id="path3020" /></clipPath><clipPath
       clipPathUnits="userSpaceOnUse"
       id="clipPath3072"><path
         d="m 42.4,753.1 27.3,0 0,18 -27.3,0 0,-18 z"
         clip-rule="evenodd"
         id="path3074" /></clipPath><clipPath
       clipPathUnits="userSpaceOnUse"
       id="clipPath3120"><path
         d="m 166.7,753.1 20.5,0 0,18 -20.5,0 0,-18 z"
         clip-rule="evenodd"
         id="path3122" /></clipPath><clipPath
       clipPathUnits="userSpaceOnUse"
       id="clipPath3188"><path
         d="m 42.4,699.1 27.3,0 0,54 -27.3,0 0,-54 z"
         clip-rule="evenodd"
         id="path3190" /></clipPath><clipPath
       clipPathUnits="userSpaceOnUse"
       id="clipPath3340"><path
         d="m -9,420 613,0 0,0.1 -613,0 0,-0.1 z"
         id="path3342" /></clipPath></defs><sodipodi:namedview
     pagecolor="#ffffff"
     bordercolor="#666666"
     borderopacity="1"
     objecttolerance="10"
     gridtolerance="10"
     guidetolerance="10"
     inkscape:pageopacity="0"
     inkscape:pageshadow="2"
     inkscape:window-width="766"
     inkscape:window-height="1008"
     id="namedview3006"
     showgrid="true"
     inkscape:zoom="3.0973872"
     inkscape:cx="125.6549"
     inkscape:cy="896.83631"
     inkscape:window-x="0"
     inkscape:window-y="14"
     inkscape:window-maximized="0"
     inkscape:current-layer="g3012"><inkscape:grid
       type="xygrid"
       id="grid3350" /></sodipodi:namedview><g
     id="g3012"
     inkscape:groupmode="layer"
     inkscape:label="online"
     transform="matrix(1.25,0,0,-1.25,0,1052.5)"><g
       id="g3014"><g
         id="g3016"
         clip-path="url(#clipPath3018)" /></g><g
       id="g3024"><path
         d="m 42.5,753.2 506.9,0"
         style="fill:none;stroke:none"
         id="path3026" /></g><g
       id="g3030"><path
         d="m 69.9,753.2 0,18"
         style="fill:none;stroke:none"
         id="path3032" /></g><g
       id="g3034"><path
         d="m 146.1,753.2 0,18"
         style="fill:none;stroke:none"
         id="path3036" /></g><g
       id="g3038"><path
         d="m 166.7,753.2 0,18"
         style="fill:none;stroke:none"
         id="path3040" /></g><g
       id="g3042"><path
         d="m 187.3,753.2 0,18"
         style="fill:none;stroke:none"
         id="path3044" /></g><g
       id="g3046"><path
         d="m 219.3,753.2 0,18"
         style="fill:none;stroke:none"
         id="path3048" /></g><g
       id="g3050"><path
         d="m 246.8,753.2 0,18"
         style="fill:none;stroke:none"
         id="path3052" /></g><g
       id="g3054"><path
         d="m 271.9,753.2 0,18"
         style="fill:none;stroke:none"
         id="path3056" /></g><g
       id="g3058"><path
         d="m 335.9,753.2 0,18"
         style="fill:none;stroke:none"
         id="path3060" /></g><g
       id="g3062"><path
         d="m 480,753.2 0,18"
         style="fill:none;stroke:none"
         id="path3064" /></g><g
       id="g3068"><g
         id="g3070"
         clip-path="url(#clipPath3072)"><text
           transform="matrix(1,0,0,-1,44.2,760.3)"
           id="text3076"><tspan
             style="fill:#000000;fill-opacity:1;fill-rule:nonzero;stroke:none;font-family:Ricty for Powerline;font-variant:normal;font-weight:normal;font-size:6;writing-mode:lr;-inkscape-font-specification:Ricty-Regular"
             x="0 6 12 18"
             y="0"
             sodipodi:role="line"
             id="tspan3078">科目番号</tspan></text>
</g></g><text
       transform="matrix(1,0,0,-1,99,760.3)"
       id="text3080"><tspan
         style="fill:#000000;fill-opacity:1;fill-rule:nonzero;stroke:none;font-family:Ricty for Powerline;font-variant:normal;font-weight:normal;font-size:6;writing-mode:lr;-inkscape-font-specification:Ricty-Regular"
         x="0 6 12"
         y="0"
         sodipodi:role="line"
         id="tspan3082">科目名</tspan></text>
<text
       transform="matrix(1,0,0,-1,191.3,760.3)"
       id="text3084"><tspan
         style="fill:#000000;fill-opacity:1;fill-rule:nonzero;stroke:none;font-family:Ricty for Powerline;font-variant:normal;font-weight:normal;font-size:6;writing-mode:lr;-inkscape-font-specification:Ricty-Regular"
         x="0 6 12 18"
         y="0"
         sodipodi:role="line"
         id="tspan3086">実施学期</tspan></text>
<text
       transform="matrix(1,0,0,-1,224.1,760.3)"
       id="text3088"><tspan
         style="fill:#000000;fill-opacity:1;fill-rule:nonzero;stroke:none;font-family:Ricty for Powerline;font-variant:normal;font-weight:normal;font-size:6;writing-mode:lr;-inkscape-font-specification:Ricty-Regular"
         x="0 6 12"
         y="0"
         sodipodi:role="line"
         id="tspan3090">曜時限</tspan></text>
<text
       transform="matrix(1,0,0,-1,253.3,760.3)"
       id="text3092"><tspan
         style="fill:#000000;fill-opacity:1;fill-rule:nonzero;stroke:none;font-family:Ricty for Powerline;font-variant:normal;font-weight:normal;font-size:6;writing-mode:lr;-inkscape-font-specification:Ricty-Regular"
         x="0 6"
         y="0"
         sodipodi:role="line"
         id="tspan3094">教室</tspan></text>
<text
       transform="matrix(1,0,0,-1,291.9,760.3)"
       id="text3096"><tspan
         style="fill:#000000;fill-opacity:1;fill-rule:nonzero;stroke:none;font-family:Ricty for Powerline;font-variant:normal;font-weight:normal;font-size:6;writing-mode:lr;-inkscape-font-specification:Ricty-Regular"
         x="0 6 12 18"
         y="0"
         sodipodi:role="line"
         id="tspan3098">担当教員</tspan></text>
<text
       transform="matrix(1,0,0,-1,396,760.3)"
       id="text3100"><tspan
         style="fill:#000000;fill-opacity:1;fill-rule:nonzero;stroke:none;font-family:Ricty for Powerline;font-variant:normal;font-weight:normal;font-size:6;writing-mode:lr;-inkscape-font-specification:Ricty-Regular"
         x="0 6 12 18"
         y="0"
         sodipodi:role="line"
         id="tspan3102">授業概要</tspan></text>
<text
       transform="matrix(1,0,0,-1,508.7,760.3)"
       id="text3104"><tspan
         style="fill:#000000;fill-opacity:1;fill-rule:nonzero;stroke:none;font-family:Ricty for Powerline;font-variant:normal;font-weight:normal;font-size:6;writing-mode:lr;-inkscape-font-specification:Ricty-Regular"
         x="0 6"
         y="0"
         sodipodi:role="line"
         id="tspan3106">備考</tspan></text>
<text
       transform="matrix(1,0,0,-1,150.4,763.5)"
       id="text3108"><tspan
         style="fill:#000000;fill-opacity:1;fill-rule:nonzero;stroke:none;font-family:Ricty for Powerline;font-variant:normal;font-weight:normal;font-size:6;writing-mode:lr;-inkscape-font-specification:Ricty-Regular"
         x="0 6"
         y="0"
         sodipodi:role="line"
         id="tspan3110">単位</tspan></text>
<text
       transform="matrix(1,0,0,-1,153.4,757.2)"
       id="text3112"><tspan
         style="fill:#000000;fill-opacity:1;fill-rule:nonzero;stroke:none;font-family:Ricty for Powerline;font-variant:normal;font-weight:normal;font-size:6;writing-mode:lr;-inkscape-font-specification:Ricty-Regular"
         x="0"
         y="0"
         id="tspan3114">数</tspan></text>
<g
       id="g3116"><g
         id="g3118"
         clip-path="url(#clipPath3120)"><text
           transform="matrix(1,0,0,-1,171,766.6)"
           id="text3124"><tspan
             style="fill:#000000;fill-opacity:1;fill-rule:nonzero;stroke:none;font-family:Ricty for Powerline;font-variant:normal;font-weight:normal;font-size:6;writing-mode:lr;-inkscape-font-specification:Ricty-Regular"
             x="0 6"
             y="0"
             sodipodi:role="line"
             id="tspan3126">標準</tspan></text>
<text
           transform="matrix(1,0,0,-1,171,760.3)"
           id="text3128"><tspan
             style="fill:#000000;fill-opacity:1;fill-rule:nonzero;stroke:none;font-family:Ricty for Powerline;font-variant:normal;font-weight:normal;font-size:6;writing-mode:lr;-inkscape-font-specification:Ricty-Regular"
             x="0 6"
             y="0"
             sodipodi:role="line"
             id="tspan3130">履修</tspan></text>
<text
           transform="matrix(1,0,0,-1,171,754)"
           id="text3132"><tspan
             style="fill:#000000;fill-opacity:1;fill-rule:nonzero;stroke:none;font-family:Ricty for Powerline;font-variant:normal;font-weight:normal;font-size:6;writing-mode:lr;-inkscape-font-specification:Ricty-Regular"
             x="0 6"
             y="0"
             sodipodi:role="line"
             id="tspan3134">年次</tspan></text>
</g></g><g
       id="g3136"><path
         d="m 42.5,753.2 506.9,0"
         style="fill:none;stroke:none"
         id="path3138" /></g><g
       id="g3140"><path
         d="m 42.5,699.2 506.9,0"
         style="fill:none;stroke:none"
         id="path3142" /></g><g
       id="g3146"><path
         d="m 69.9,699.2 0,54"
         style="fill:none;stroke:none"
         id="path3148" /></g><g
       id="g3150"><path
         d="m 146.1,699.2 0,54"
         style="fill:none;stroke:none"
         id="path3152" /></g><g
       id="g3154"><path
         d="m 166.7,699.2 0,54"
         style="fill:none;stroke:none"
         id="path3156" /></g><g
       id="g3158"><path
         d="m 187.3,699.2 0,54"
         style="fill:none;stroke:none"
         id="path3160" /></g><g
       id="g3162"><path
         d="m 219.3,699.2 0,54"
         style="fill:none;stroke:none"
         id="path3164" /></g><g
       id="g3166"><path
         d="m 246.8,699.2 0,54"
         style="fill:none;stroke:none"
         id="path3168" /></g><g
       id="g3170"><path
         d="m 271.9,699.2 0,54"
         style="fill:none;stroke:none"
         id="path3172" /></g><g
       id="g3174"><path
         d="m 335.9,699.2 0,54"
         style="fill:none;stroke:none"
         id="path3176" /></g><g
       id="g3178"><path
         d="m 480,699.2 0,54"
         style="fill:none;stroke:none"
         id="path3180" /></g><g
       id="g3184"><g
         id="g3186"
         clip-path="url(#clipPath3188)"><text
           transform="matrix(1,0,0,-1,44.5,723.8)"
           id="text3192"><tspan
             style="fill:#000000;fill-opacity:1;fill-rule:nonzero;stroke:none;font-family:Nimbus Sans L;font-variant:normal;font-size:7;writing-mode:lr;-inkscape-font-specification:NimbusSanL-Regu"
             x="0 5.397 10.087 13.979 17.871 21.763 25.655"
             y="0"
             sodipodi:role="line"
             id="tspan3194">GB10611</tspan></text>
</g></g><text
       transform="matrix(1,0,0,-1,71.9,724)"
       id="text3196"><tspan
         style="fill:#000000;fill-opacity:1;fill-rule:nonzero;stroke:none;font-family:Ricty for Powerline;font-variant:normal;font-weight:normal;font-size:7;writing-mode:lr;-inkscape-font-specification:Ricty-Regular"
         x="0 7 14 21 28 35 42 49 56 63"
         y="0"
         sodipodi:role="line"
         id="tspan3198">コンピュータリテラシ</tspan></text>
<text
       transform="matrix(1,0,0,-1,150.6,723.8)"
       id="text3200"><tspan
         style="fill:#000000;fill-opacity:1;fill-rule:nonzero;stroke:none;font-family:Nimbus Sans L;font-variant:normal;font-size:7;writing-mode:lr;-inkscape-font-specification:NimbusSanL-Regu"
         x="0 3.892 5.789 9.681"
         y="0"
         sodipodi:role="line"
         id="tspan3202">1.0 </tspan></text>
<text
       transform="matrix(1,0,0,-1,175,723.8)"
       id="text3204"><tspan
         style="fill:#000000;fill-opacity:1;fill-rule:nonzero;stroke:none;font-family:Nimbus Sans L;font-variant:normal;font-size:7;writing-mode:lr;-inkscape-font-specification:NimbusSanL-Regu"
         x="0"
         y="0"
         id="tspan3206">1</tspan></text>
<text
       transform="matrix(1,0,0,-1,249.2,723.8)"
       id="text3208"><tspan
         style="fill:#000000;fill-opacity:1;fill-rule:nonzero;stroke:none;font-family:Nimbus Sans L;font-variant:normal;font-size:7;writing-mode:lr;-inkscape-font-specification:NimbusSanL-Regu"
         x="0 3.892 8.582 12.474 16.366"
         y="0"
         sodipodi:role="line"
         id="tspan3210">3A209</tspan></text>
<text
       transform="matrix(1,0,0,-1,195.1,723.8)"
       id="text3212"><tspan
         style="fill:#000000;fill-opacity:1;fill-rule:nonzero;stroke:none;font-family:Ricty for Powerline;font-variant:normal;font-weight:normal;font-size:7;writing-mode:lr;-inkscape-font-specification:Ricty-Regular"
         x="0"
         y="0"
         id="tspan3214">春</tspan></text>
<text
       transform="matrix(1,0,0,-1,202.1,723.8)"
       id="text3216"><tspan
         style="fill:#000000;fill-opacity:1;fill-rule:nonzero;stroke:none;font-family:Nimbus Sans L;font-variant:normal;font-size:7;writing-mode:lr;-inkscape-font-specification:NimbusSanL-Regu"
         x="0 4.69"
         y="0"
         sodipodi:role="line"
         id="tspan3218">AB</tspan></text>
<text
       transform="matrix(1,0,0,-1,227.6,723.8)"
       id="text3220"><tspan
         style="fill:#000000;fill-opacity:1;fill-rule:nonzero;stroke:none;font-family:Ricty for Powerline;font-variant:normal;font-weight:normal;font-size:7;writing-mode:lr;-inkscape-font-specification:Ricty-Regular"
         x="0"
         y="0"
         id="tspan3222">金</tspan></text>
<text
       transform="matrix(1,0,0,-1,234.6,723.8)"
       id="text3224"><tspan
         style="fill:#000000;fill-opacity:1;fill-rule:nonzero;stroke:none;font-family:Nimbus Sans L;font-variant:normal;font-size:7;writing-mode:lr;-inkscape-font-specification:NimbusSanL-Regu"
         x="0"
         y="0"
         id="tspan3226">2</tspan></text>
<text
       transform="matrix(1,0,0,-1,273.9,727.7)"
       id="text3228"><tspan
         style="fill:#000000;fill-opacity:1;fill-rule:nonzero;stroke:none;font-family:Ricty for Powerline;font-variant:normal;font-weight:normal;font-size:7;writing-mode:lr;-inkscape-font-specification:Ricty-Regular"
         x="0 7 14 21"
         y="0"
         sodipodi:role="line"
         id="tspan3230">秡川友宏</tspan></text>
<text
       transform="matrix(1,0,0,-1,273.9,720.4)"
       id="text3232"><tspan
         style="fill:#000000;fill-opacity:1;fill-rule:nonzero;stroke:none;font-family:Ricty for Powerline;font-variant:normal;font-weight:normal;font-size:7;writing-mode:lr;-inkscape-font-specification:Ricty-Regular"
         x="0 7 14 21"
         y="0"
         sodipodi:role="line"
         id="tspan3234">早瀬康裕</tspan></text>
<text
       transform="matrix(1,0,0,-1,337.9,745.4)"
       id="text3236"><tspan
         style="fill:#000000;fill-opacity:1;fill-rule:nonzero;stroke:none;font-family:Ricty for Powerline;font-variant:normal;font-weight:normal;font-size:6;writing-mode:lr;-inkscape-font-specification:Ricty-Regular"
         x="0 6.096 11.994 17.994 24.09 29.988 35.988 42.084 47.982 53.982 60.078 65.976 71.976 78.072 83.97 89.97 96.066 101.964 107.964"
         y="0"
         sodipodi:role="line"
         id="tspan3238">コンピュータの基本概念・構成・仕組みと</tspan></text>
<text
       transform="matrix(1,0,0,-1,452,745.4)"
       id="text3240"><tspan
         style="fill:#000000;fill-opacity:1;fill-rule:nonzero;stroke:none;font-family:Nimbus Sans L;font-variant:normal;font-size:6;writing-mode:lr;-inkscape-font-specification:NimbusSanL-Regu"
         x="0"
         y="0"
         id="tspan3242">,</tspan></text>
<text
       transform="matrix(1,0,0,-1,453.7,745.4)"
       id="text3244"><tspan
         style="fill:#000000;fill-opacity:1;fill-rule:nonzero;stroke:none;font-family:Ricty for Powerline;font-variant:normal;font-weight:normal;font-size:6;writing-mode:lr;-inkscape-font-specification:Ricty-Regular"
         x="0 6 11.898 17.994"
         y="0"
         sodipodi:role="line"
         id="tspan3246">インター</tspan></text>
<text
       transform="matrix(1,0,0,-1,337.9,738.6)"
       id="text3248"><tspan
         style="fill:#000000;fill-opacity:1;fill-rule:nonzero;stroke:none;font-family:Ricty for Powerline;font-variant:normal;font-weight:normal;font-size:6;writing-mode:lr;-inkscape-font-specification:Ricty-Regular"
         x="0 6.096 11.994 17.994 24.09 29.988 35.988 42.084 47.982 53.982 60.078 65.976 71.976 78.072 83.97 89.97 96.066 101.964 107.964 114.06 119.958 125.958 132.054"
         y="0"
         sodipodi:role="line"
         id="tspan3250">ネットの利用方法などについて入門的な講義をする</tspan></text>
<text
       transform="matrix(1,0,0,-1,337.9,731.4)"
       id="text3252"><tspan
         style="fill:#000000;fill-opacity:1;fill-rule:nonzero;stroke:none;font-family:Ricty for Powerline;font-variant:normal;font-weight:normal;font-size:6;writing-mode:lr;-inkscape-font-specification:Ricty-Regular"
         x="0 6.096 11.994"
         y="0"
         sodipodi:role="line"
         id="tspan3254">。内容</tspan></text>
<text
       transform="matrix(1,0,0,-1,355.9,731.4)"
       id="text3256"><tspan
         style="fill:#000000;fill-opacity:1;fill-rule:nonzero;stroke:none;font-family:Nimbus Sans L;font-variant:normal;font-size:6;writing-mode:lr;-inkscape-font-specification:NimbusSanL-Regu"
         x="0 1.692 6.084 10.284 11.976"
         y="0"
         sodipodi:role="line"
         id="tspan3258">:UNIX</tspan></text>
<text
       transform="matrix(1,0,0,-1,371.9,731.4)"
       id="text3260"><tspan
         style="fill:#000000;fill-opacity:1;fill-rule:nonzero;stroke:none;font-family:Ricty for Powerline;font-variant:normal;font-weight:normal;font-size:6;writing-mode:lr;-inkscape-font-specification:Ricty-Regular"
         x="0 6 12 18 24"
         y="0"
         sodipodi:role="line"
         id="tspan3262">の基本概念</tspan></text>
<text
       transform="matrix(1,0,0,-1,401.9,731.4)"
       id="text3264"><tspan
         style="fill:#000000;fill-opacity:1;fill-rule:nonzero;stroke:none;font-family:Nimbus Sans L;font-variant:normal;font-size:6;writing-mode:lr;-inkscape-font-specification:NimbusSanL-Regu"
         x="0"
         y="0"
         id="tspan3266">,</tspan></text>
<text
       transform="matrix(1,0,0,-1,403.6,731.4)"
       id="text3268"><tspan
         style="fill:#000000;fill-opacity:1;fill-rule:nonzero;stroke:none;font-family:Ricty for Powerline;font-variant:normal;font-weight:normal;font-size:6;writing-mode:lr;-inkscape-font-specification:Ricty-Regular"
         x="0 6 12 18 24"
         y="0"
         sodipodi:role="line"
         id="tspan3270">電子メイル</tspan></text>
<text
       transform="matrix(1,0,0,-1,433.6,731.4)"
       id="text3272"><tspan
         style="fill:#000000;fill-opacity:1;fill-rule:nonzero;stroke:none;font-family:Nimbus Sans L;font-variant:normal;font-size:6;writing-mode:lr;-inkscape-font-specification:NimbusSanL-Regu"
         x="0"
         y="0"
         id="tspan3274">,</tspan></text>
<text
       transform="matrix(1,0,0,-1,435.3,731.4)"
       id="text3276"><tspan
         style="fill:#000000;fill-opacity:1;fill-rule:nonzero;stroke:none;font-family:Ricty for Powerline;font-variant:normal;font-weight:normal;font-size:6;writing-mode:lr;-inkscape-font-specification:Ricty-Regular"
         x="0 6 12"
         y="0"
         sodipodi:role="line"
         id="tspan3278">エディ</tspan></text>
<text
       transform="matrix(1,0,0,-1,337.9,723.8)"
       id="text3280"><tspan
         style="fill:#000000;fill-opacity:1;fill-rule:nonzero;stroke:none;font-family:Ricty for Powerline;font-variant:normal;font-weight:normal;font-size:6;writing-mode:lr;-inkscape-font-specification:Ricty-Regular"
         x="0"
         y="0"
         id="tspan3282">タ</tspan></text>
<text
       transform="matrix(1,0,0,-1,344,723.8)"
       id="text3284"><tspan
         style="fill:#000000;fill-opacity:1;fill-rule:nonzero;stroke:none;font-family:Nimbus Sans L;font-variant:normal;font-size:6;writing-mode:lr;-inkscape-font-specification:NimbusSanL-Regu"
         x="0 1.692 7.386 13.08"
         y="0"
         sodipodi:role="line"
         id="tspan3286">,WWW</tspan></text>
<text
       transform="matrix(1,0,0,-1,362.7,723.8)"
       id="text3288"><tspan
         style="fill:#000000;fill-opacity:1;fill-rule:nonzero;stroke:none;font-family:Ricty for Powerline;font-variant:normal;font-weight:normal;font-size:6;writing-mode:lr;-inkscape-font-specification:Ricty-Regular"
         x="0 6.096 11.994 17.994"
         y="0"
         sodipodi:role="line"
         id="tspan3290">ブラウザ</tspan></text>
<text
       transform="matrix(1,0,0,-1,386.8,723.8)"
       id="text3292"><tspan
         style="fill:#000000;fill-opacity:1;fill-rule:nonzero;stroke:none;font-family:Nimbus Sans L;font-variant:normal;font-size:6;writing-mode:lr;-inkscape-font-specification:NimbusSanL-Regu"
         x="0"
         y="0"
         id="tspan3294">,</tspan></text>
<text
       transform="matrix(1,0,0,-1,388.5,723.8)"
       id="text3296"><tspan
         style="fill:#000000;fill-opacity:1;fill-rule:nonzero;stroke:none;font-family:Ricty for Powerline;font-variant:normal;font-weight:normal;font-size:6;writing-mode:lr;-inkscape-font-specification:Ricty-Regular"
         x="0 6 12 18"
         y="0"
         sodipodi:role="line"
         id="tspan3298">文書処理</tspan></text>
<text
       transform="matrix(1,0,0,-1,412.5,723.8)"
       id="text3300"><tspan
         style="fill:#000000;fill-opacity:1;fill-rule:nonzero;stroke:none;font-family:Nimbus Sans L;font-variant:normal;font-size:6;writing-mode:lr;-inkscape-font-specification:NimbusSanL-Regu"
         x="0"
         y="0"
         id="tspan3302">,</tspan></text>
<text
       transform="matrix(1,0,0,-1,414.2,723.8)"
       id="text3304"><tspan
         style="fill:#000000;fill-opacity:1;fill-rule:nonzero;stroke:none;font-family:Ricty for Powerline;font-variant:normal;font-weight:normal;font-size:6;writing-mode:lr;-inkscape-font-specification:Ricty-Regular"
         x="0 6 12 18 24 30 36"
         y="0"
         sodipodi:role="line"
         id="tspan3306">図形描画など。</tspan></text>
<text
       transform="matrix(1,0,0,-1,482,746.2)"
       id="text3308"><tspan
         style="fill:#000000;fill-opacity:1;fill-rule:nonzero;stroke:none;font-family:Ricty for Powerline;font-variant:normal;font-weight:normal;font-size:6;writing-mode:lr;-inkscape-font-specification:Ricty-Regular"
         x="0 6 12 18 24 30 36 42 48 54"
         y="0"
         sodipodi:role="line"
         id="tspan3310">「コンピュータリテラ</tspan></text>
<text
       transform="matrix(1,0,0,-1,482,739.9)"
       id="text3312"><tspan
         style="fill:#000000;fill-opacity:1;fill-rule:nonzero;stroke:none;font-family:Ricty for Powerline;font-variant:normal;font-weight:normal;font-size:6;writing-mode:lr;-inkscape-font-specification:Ricty-Regular"
         x="0 6 12 18 24 30 36 42 48 54"
         y="0"
         sodipodi:role="line"
         id="tspan3314">シ実習」を同時に履修</tspan></text>
<text
       transform="matrix(1,0,0,-1,482,733.6)"
       id="text3316"><tspan
         style="fill:#000000;fill-opacity:1;fill-rule:nonzero;stroke:none;font-family:Ricty for Powerline;font-variant:normal;font-weight:normal;font-size:6;writing-mode:lr;-inkscape-font-specification:Ricty-Regular"
         x="0 6 12 18 24 30 36 42 48 54"
         y="0"
         sodipodi:role="line"
         id="tspan3318">すること。人数制限あ</tspan></text>
<text
       transform="matrix(1,0,0,-1,482,727.3)"
       id="text3320"><tspan
         style="fill:#000000;fill-opacity:1;fill-rule:nonzero;stroke:none;font-family:Ricty for Powerline;font-variant:normal;font-weight:normal;font-size:6;writing-mode:lr;-inkscape-font-specification:Ricty-Regular"
         x="0 6 12 18 24 30 36 42 48 54"
         y="0"
         sodipodi:role="line"
         id="tspan3322">り。初回の授業に必ず</tspan></text>
<text
       transform="matrix(1,0,0,-1,482,721)"
       id="text3324"><tspan
         style="fill:#000000;fill-opacity:1;fill-rule:nonzero;stroke:none;font-family:Ricty for Powerline;font-variant:normal;font-weight:normal;font-size:6;writing-mode:lr;-inkscape-font-specification:Ricty-Regular"
         x="0 6 12 18 24 30 36 42 48 54"
         y="0"
         sodipodi:role="line"
         id="tspan3326">出席すること。クラス</tspan></text>
<text
       transform="matrix(1,0,0,-1,482,714.7)"
       id="text3328"><tspan
         style="fill:#000000;fill-opacity:1;fill-rule:nonzero;stroke:none;font-family:Ricty for Powerline;font-variant:normal;font-weight:normal;font-size:6;writing-mode:lr;-inkscape-font-specification:Ricty-Regular"
         x="0 6 12 18 24 30 36 42 48 54"
         y="0"
         sodipodi:role="line"
         id="tspan3330">分けは初回講義時に指</tspan></text>
<text
       transform="matrix(1,0,0,-1,482,708.4)"
       id="text3332"><tspan
         style="fill:#000000;fill-opacity:1;fill-rule:nonzero;stroke:none;font-family:Ricty for Powerline;font-variant:normal;font-weight:normal;font-size:6;writing-mode:lr;-inkscape-font-specification:Ricty-Regular"
         x="0 6 12 18"
         y="0"
         sodipodi:role="line"
         id="tspan3334">定する。</tspan></text>
<g
       id="g3336"><g
         id="g3338" /><g
         id="g3344"><g
           clip-path="url(#clipPath3340)"
           opacity="0.5"
           id="g3346" /></g></g><path
       style="fill:none;stroke:#000000;stroke-width:1px;stroke-linecap:butt;stroke-linejoin:miter;stroke-opacity:1"
       d="M 52.947853,111.70705 685,111.5"
       id="path3348"
       inkscape:connector-curvature="0"
       transform="matrix(0.8,0,0,-0.8,0,842)"
       sodipodi:nodetypes="cc" /><path
       style="fill:none;stroke:#000000;stroke-width:1px;stroke-linecap:butt;stroke-linejoin:miter;stroke-opacity:1"
       d="m 53,88.5 0,84"
       id="path3352"
       inkscape:connector-curvature="0"
       transform="matrix(0.8,0,0,-0.8,0,842)"
       sodipodi:nodetypes="cc" /><path
       style="fill:none;stroke:#000000;stroke-width:1px;stroke-linecap:butt;stroke-linejoin:miter;stroke-opacity:1"
       d="m 88,88.5 0,84.01634"
       id="path3354"
       inkscape:connector-curvature="0"
       transform="matrix(0.8,0,0,-0.8,0,842)"
       sodipodi:nodetypes="cc" /><path
       style="fill:none;stroke:#000000;stroke-width:1px;stroke-linecap:butt;stroke-linejoin:miter;stroke-opacity:1"
       d="m 182,88.5 0,84.01634"
       id="path3356"
       inkscape:connector-curvature="0"
       transform="matrix(0.8,0,0,-0.8,0,842)"
       sodipodi:nodetypes="cc" /><path
       style="fill:none;stroke:#000000;stroke-width:1px;stroke-linecap:butt;stroke-linejoin:miter;stroke-opacity:1"
       d="m 210,88.5 0,84.01634"
       id="path3358"
       inkscape:connector-curvature="0"
       transform="matrix(0.8,0,0,-0.8,0,842)"
       sodipodi:nodetypes="cc" /><path
       style="fill:none;stroke:#000000;stroke-width:1px;stroke-linecap:butt;stroke-linejoin:miter;stroke-opacity:1"
       d="m 231,88.5 0,84.01634"
       id="path3360"
       inkscape:connector-curvature="0"
       transform="matrix(0.8,0,0,-0.8,0,842)"
       sodipodi:nodetypes="cc" /><path
       style="fill:none;stroke:#000000;stroke-width:1px;stroke-linecap:butt;stroke-linejoin:miter;stroke-opacity:1"
       d="m 275,88.5 0,84.01634"
       id="path3362"
       inkscape:connector-curvature="0"
       transform="matrix(0.8,0,0,-0.8,0,842)"
       sodipodi:nodetypes="cc" /><path
       style="fill:none;stroke:#000000;stroke-width:1px;stroke-linecap:butt;stroke-linejoin:miter;stroke-opacity:1"
       d="m 308,88.5 0,84.11414"
       id="path3364"
       inkscape:connector-curvature="0"
       transform="matrix(0.8,0,0,-0.8,0,842)"
       sodipodi:nodetypes="cc" /><path
       style="fill:none;stroke:#000000;stroke-width:1px;stroke-linecap:butt;stroke-linejoin:miter;stroke-opacity:1"
       d="m 340,88.5 0,84"
       id="path3366"
       inkscape:connector-curvature="0"
       transform="matrix(0.8,0,0,-0.8,0,842)"
       sodipodi:nodetypes="cc" /><path
       style="fill:none;stroke:#000000;stroke-width:1px;stroke-linecap:butt;stroke-linejoin:miter;stroke-opacity:1"
       d="m 420,88.5 0,83.5943"
       id="path3368"
       inkscape:connector-curvature="0"
       transform="matrix(0.8,0,0,-0.8,0,842)"
       sodipodi:nodetypes="cc" /><path
       style="fill:none;stroke:#000000;stroke-width:1px;stroke-linecap:butt;stroke-linejoin:miter;stroke-opacity:1"
       d="m 600,88.5 0,84"
       id="path3370"
       inkscape:connector-curvature="0"
       transform="matrix(0.8,0,0,-0.8,0,842)" /><path
       style="fill:none;stroke:#000000;stroke-width:1px;stroke-linecap:butt;stroke-linejoin:miter;stroke-opacity:1"
       d="m 685,172.5 -632,0"
       id="path3372"
       inkscape:connector-curvature="0"
       transform="matrix(0.8,0,0,-0.8,0,842)"
       sodipodi:nodetypes="cc" /><path
       style="fill:none;stroke:#000000;stroke-width:1px;stroke-linecap:butt;stroke-linejoin:miter;stroke-opacity:1"
       d="m 685,172.5 0,-84"
       id="path3374"
       inkscape:connector-curvature="0"
       transform="matrix(0.8,0,0,-0.8,0,842)"
       sodipodi:nodetypes="cc" /><path
       style="fill:none;stroke:#000000;stroke-width:1px;stroke-linecap:butt;stroke-linejoin:miter;stroke-opacity:1"
       d="m 53,88.5 632,0"
       id="path3376"
       inkscape:connector-curvature="0"
       transform="matrix(0.8,0,0,-0.8,0,842)" /></g></svg>